<?xml version="1.0" encoding="utf-8"?>
<!-- Generator: Adobe Illustrator 19.2.1, SVG Export Plug-In . SVG Version: 6.00 Build 0)  -->
<svg version="1.1" id="Layer_1" xmlns="http://www.w3.org/2000/svg" xmlns:xlink="http://www.w3.org/1999/xlink" x="0px" y="0px"
	 viewBox="0 0 24 24" style="enable-background:new 0 0 24 24;" xml:space="preserve">
<style type="text/css">
	.st0{fill:#010101;}
</style>
<g>
	<g>
		<path class="st0" d="M3.1,8.7c0.3,0.2,1.1,0.8,2.5,1.7c1.4,1,2.5,1.7,3.2,2.2c0.1,0.1,0.3,0.2,0.5,0.4c0.3,0.2,0.5,0.3,0.7,0.5
			c0.2,0.1,0.4,0.3,0.6,0.4c0.2,0.1,0.5,0.3,0.7,0.3c0.2,0.1,0.4,0.1,0.6,0.1h0h0c0.2,0,0.4,0,0.6-0.1c0.2-0.1,0.5-0.2,0.7-0.3
			c0.2-0.1,0.5-0.3,0.6-0.4c0.2-0.1,0.4-0.3,0.7-0.5c0.3-0.2,0.4-0.3,0.5-0.4c0.8-0.5,2.7-1.9,5.7-4c0.6-0.4,1.1-0.9,1.5-1.5
			C22.8,6.6,23,6,23,5.3c0-0.5-0.2-1-0.6-1.4C22,3.5,21.6,3.4,21,3.4H3C2.3,3.4,1.8,3.6,1.5,4C1.2,4.4,1,5,1,5.6
			c0,0.5,0.2,1.1,0.7,1.7C2.1,7.9,2.6,8.3,3.1,8.7z"/>
		<path class="st0" d="M21.8,10c-2.7,1.8-4.7,3.2-6.1,4.2c-0.5,0.3-0.8,0.6-1.1,0.8c-0.3,0.2-0.7,0.4-1.2,0.6
			c-0.5,0.2-0.9,0.3-1.4,0.3h0h0c-0.4,0-0.9-0.1-1.4-0.3c-0.5-0.2-0.9-0.4-1.2-0.6c-0.3-0.2-0.7-0.5-1.1-0.8C7.2,13.4,5.2,12,2.2,10
			C1.8,9.7,1.4,9.3,1,8.9v9.7c0,0.5,0.2,1,0.6,1.4C2,20.5,2.4,20.6,3,20.6H21c0.5,0,1-0.2,1.4-0.6c0.4-0.4,0.6-0.8,0.6-1.4V8.9
			C22.6,9.3,22.2,9.7,21.8,10z"/>
	</g>
</g>
</svg>
