<?xml version="1.0" encoding="utf-8"?>
<!-- Generator: Adobe Illustrator 19.2.1, SVG Export Plug-In . SVG Version: 6.00 Build 0)  -->
<svg version="1.1" id="Layer_1" xmlns="http://www.w3.org/2000/svg" xmlns:xlink="http://www.w3.org/1999/xlink" x="0px" y="0px"
	 viewBox="0 0 24 24" style="enable-background:new 0 0 24 24;" xml:space="preserve">
<style type="text/css">
	.st0{fill:#010101;}
</style>
<g>
	<path class="st0" d="M23,18c-0.1-0.2-0.5-0.5-1.2-0.8c-0.2-0.1-0.5-0.3-0.8-0.5c-0.4-0.2-0.7-0.4-1-0.5c-0.3-0.2-0.6-0.3-0.8-0.5
		c0,0-0.2-0.1-0.4-0.3c-0.2-0.2-0.4-0.3-0.6-0.3C18,15,17.8,15,17.7,15c-0.2,0-0.5,0.1-0.8,0.4c-0.3,0.3-0.6,0.6-0.9,1
		c-0.3,0.3-0.5,0.7-0.8,1c-0.3,0.3-0.5,0.4-0.7,0.4c-0.1,0-0.2,0-0.4-0.1c-0.1-0.1-0.2-0.1-0.3-0.1c-0.1,0-0.2-0.1-0.4-0.2
		c-0.2-0.1-0.3-0.2-0.3-0.2c-1.4-0.8-2.7-1.7-3.7-2.7c-1-1-1.9-2.2-2.7-3.7c0,0-0.1-0.1-0.2-0.3c-0.1-0.2-0.2-0.3-0.2-0.4
		c0-0.1-0.1-0.2-0.1-0.3C6.2,9.7,6.2,9.6,6.2,9.5c0-0.2,0.1-0.4,0.4-0.7c0.3-0.3,0.6-0.6,1-0.8c0.3-0.3,0.7-0.5,1-0.9
		C8.8,6.8,9,6.5,9,6.3C9,6.2,9,6,8.9,5.9C8.8,5.7,8.7,5.5,8.6,5.3C8.4,5.1,8.3,4.9,8.3,4.9C8.1,4.6,8,4.4,7.8,4.1
		c-0.2-0.3-0.3-0.6-0.5-1C7,2.7,6.9,2.4,6.8,2.2C6.4,1.5,6.1,1.1,6,1C5.9,1,5.8,1,5.6,1C5.3,1,5,1.1,4.5,1.2
		C4.1,1.3,3.7,1.4,3.5,1.5C2.9,1.7,2.4,2.3,1.8,3.4C1.3,4.4,1,5.3,1,6.3c0,0.3,0,0.6,0.1,0.8c0,0.3,0.1,0.6,0.2,0.9
		c0.1,0.3,0.2,0.6,0.2,0.7c0.1,0.2,0.2,0.5,0.3,0.9C1.9,10,2,10.3,2.1,10.4c0.4,1,0.8,1.9,1.3,2.7c0.8,1.3,1.9,2.7,3.4,4.1
		c1.4,1.4,2.8,2.5,4.1,3.4c0.8,0.5,1.7,0.9,2.7,1.3c0.1,0,0.3,0.1,0.8,0.3c0.4,0.2,0.7,0.3,0.9,0.3c0.2,0.1,0.4,0.1,0.7,0.2
		c0.3,0.1,0.6,0.2,0.9,0.2c0.3,0,0.5,0.1,0.8,0.1c1,0,1.9-0.3,2.9-0.8c1.1-0.6,1.7-1.1,1.9-1.7c0.1-0.3,0.2-0.6,0.3-1.1
		c0.1-0.5,0.2-0.8,0.2-1.1C23,18.2,23,18.1,23,18z"/>
</g>
</svg>
