<?xml version="1.0" encoding="utf-8"?>
<!-- Generator: Adobe Illustrator 19.2.1, SVG Export Plug-In . SVG Version: 6.00 Build 0)  -->
<svg version="1.1" id="Capa_1" xmlns="http://www.w3.org/2000/svg" xmlns:xlink="http://www.w3.org/1999/xlink" x="0px" y="0px"
	 viewBox="0 0 24 24" style="enable-background:new 0 0 24 24;" xml:space="preserve">
<g>
	<g>
		<path d="M12,1C5.9,1,1,5.9,1,12c0,6.1,4.9,11,11,11c6.1,0,11-4.9,11-11C23,5.9,18.1,1,12,1z M16.9,9.5c0,0.1,0,0.2,0,0.3
			c0,3.3-2.5,7.2-7.2,7.2c-1.4,0-2.8-0.4-3.9-1.1c0.2,0,0.4,0,0.6,0c1.2,0,2.3-0.4,3.1-1.1c-1.1,0-2-0.8-2.4-1.8c0.2,0,0.3,0,0.5,0
			c0.2,0,0.5,0,0.7-0.1c-1.2-0.2-2-1.3-2-2.5c0,0,0,0,0,0c0.3,0.2,0.7,0.3,1.1,0.3c-0.7-0.5-1.1-1.2-1.1-2.1c0-0.5,0.1-0.9,0.3-1.3
			C7.9,9,9.8,10,11.9,10.1c0-0.2-0.1-0.4-0.1-0.6C11.8,8.1,13,7,14.4,7c0.7,0,1.4,0.3,1.8,0.8c0.6-0.1,1.1-0.3,1.6-0.6
			c-0.2,0.6-0.6,1.1-1.1,1.4c0.5-0.1,1-0.2,1.5-0.4C17.8,8.7,17.4,9.1,16.9,9.5z"/>
	</g>
</g>
</svg>
