<?xml version="1.0" encoding="utf-8"?>
<!-- Generator: Adobe Illustrator 19.2.1, SVG Export Plug-In . SVG Version: 6.00 Build 0)  -->
<svg version="1.1" id="Layer_1" xmlns="http://www.w3.org/2000/svg" xmlns:xlink="http://www.w3.org/1999/xlink" x="0px" y="0px"
	 viewBox="0 0 24 24" style="enable-background:new 0 0 24 24;" xml:space="preserve">
<style type="text/css">
	.st0{fill:#010101;}
</style>
<g>
	<g>
		<polygon class="st0" points="6.8,12.8 7.7,12.8 7.7,17.5 8.5,17.5 8.5,12.8 9.4,12.8 9.4,12 6.8,12 		"/>
		<path class="st0" d="M13.8,13.4c-0.3,0-0.5,0.1-0.8,0.4V12h-0.7v5.5H13v-0.4c0.2,0.3,0.5,0.5,0.8,0.5c0.3,0,0.5-0.2,0.6-0.5
			c0-0.2,0.1-0.4,0.1-0.8v-1.6c0-0.4,0-0.7-0.1-0.8C14.2,13.5,14.1,13.4,13.8,13.4z M13.7,16.4c0,0.4-0.1,0.6-0.3,0.6
			c-0.1,0-0.2-0.1-0.4-0.2v-2.5c0.1-0.1,0.2-0.2,0.4-0.2c0.2,0,0.3,0.2,0.3,0.6V16.4z"/>
		<path class="st0" d="M10.9,16.6c-0.2,0.2-0.3,0.3-0.5,0.3c-0.1,0-0.2-0.1-0.2-0.2c0,0,0-0.1,0-0.3v-3H9.5v3.2c0,0.3,0,0.5,0.1,0.6
			c0.1,0.2,0.2,0.3,0.5,0.3c0.3,0,0.6-0.2,0.8-0.5v0.4h0.7v-4.1h-0.7V16.6z"/>
		<path class="st0" d="M11.5,9.7c0.2,0,0.4-0.2,0.4-0.6V7.3c0-0.4-0.1-0.6-0.4-0.6c-0.2,0-0.4,0.2-0.4,0.6v1.7
			C11.1,9.5,11.3,9.7,11.5,9.7z"/>
		<path class="st0" d="M12,1C5.9,1,1,5.9,1,12s4.9,11,11,11s11-4.9,11-11S18.1,1,12,1z M13.2,6.1H14v3c0,0.2,0,0.3,0,0.3
			c0,0.1,0.1,0.2,0.2,0.2c0.1,0,0.3-0.1,0.5-0.4V6.1h0.7v4.1h-0.7V9.8c-0.3,0.3-0.6,0.5-0.9,0.5c-0.2,0-0.4-0.1-0.5-0.3
			c0-0.1-0.1-0.3-0.1-0.6V6.1L13.2,6.1z M10.4,7.5c0-0.4,0.1-0.8,0.2-1c0.2-0.3,0.5-0.4,0.9-0.4c0.4,0,0.7,0.1,0.9,0.4
			c0.2,0.2,0.2,0.5,0.2,1v1.4c0,0.4-0.1,0.8-0.2,1c-0.2,0.3-0.5,0.4-0.9,0.4c-0.4,0-0.7-0.1-0.9-0.4c-0.2-0.2-0.2-0.5-0.2-1V7.5z
			 M8.4,4.7L9,6.9l0.6-2.2h0.8L9.4,8v2.2H8.6V8C8.5,7.6,8.3,7.1,8,6.3c-0.2-0.5-0.4-1-0.5-1.5C7.5,4.7,8.4,4.7,8.4,4.7z M17.9,17.9
			c-0.2,0.7-0.7,1.1-1.3,1.2c-1.5,0.2-3.1,0.2-4.6,0.2c-1.5,0-3.1,0-4.6-0.2c-0.6-0.1-1.2-0.6-1.3-1.2C5.9,17,5.9,15.9,5.9,15
			s0-2,0.2-2.9c0.2-0.7,0.7-1.1,1.3-1.2c1.5-0.2,3.1-0.2,4.6-0.2c1.5,0,3.1,0,4.6,0.2c0.6,0.1,1.2,0.6,1.3,1.2
			c0.2,0.9,0.2,1.9,0.2,2.9S18.1,17,17.9,17.9z"/>
		<path class="st0" d="M16.1,13.4c-0.4,0-0.7,0.1-0.9,0.4c-0.2,0.2-0.2,0.5-0.2,1v1.4c0,0.4,0.1,0.8,0.2,1c0.2,0.3,0.5,0.4,0.9,0.4
			c0.4,0,0.7-0.1,0.9-0.4c0.1-0.1,0.1-0.3,0.2-0.4c0-0.1,0-0.2,0-0.5v-0.1h-0.8c0,0.3,0,0.5,0,0.5c0,0.2-0.1,0.3-0.3,0.3
			c-0.3,0-0.4-0.2-0.4-0.6v-0.7h1.5v-0.8c0-0.4-0.1-0.8-0.2-1C16.8,13.5,16.5,13.4,16.1,13.4z M16.5,15h-0.7v-0.4
			c0-0.4,0.1-0.6,0.4-0.6c0.2,0,0.4,0.2,0.4,0.6V15z"/>
	</g>
</g>
</svg>
