<?xml version="1.0" encoding="utf-8"?>
<!-- Generator: Adobe Illustrator 19.2.1, SVG Export Plug-In . SVG Version: 6.00 Build 0)  -->
<svg version="1.1" id="Layer_1" xmlns="http://www.w3.org/2000/svg" xmlns:xlink="http://www.w3.org/1999/xlink" x="0px" y="0px"
	 viewBox="0 0 24 24" style="enable-background:new 0 0 24 24;" xml:space="preserve">
<style type="text/css">
	.st0{fill:#1D1D1B;}
</style>
<g>
	<g>
		<path class="st0" d="M10,18.9c2.2,0,4.2-0.8,5.8-2.2l6,6c0.1,0.1,0.3,0.2,0.5,0.2c0.2,0,0.4-0.1,0.5-0.2c0.1-0.1,0.2-0.3,0.2-0.5
			c0-0.2-0.1-0.4-0.2-0.5l-6-6c1.3-1.6,2.2-3.6,2.2-5.8c0-4.9-4-9-9-9C5,1,1,5,1,10C1,14.9,5,18.9,10,18.9z M10,2.4
			c4.2,0,7.6,3.4,7.6,7.6c0,4.2-3.4,7.6-7.6,7.6c-4.2,0-7.6-3.4-7.6-7.6C2.4,5.8,5.8,2.4,10,2.4z"/>
		<path class="st0" d="M7.3,10.7H9v1.8c0,0.4,0.3,0.7,0.7,0.7c0.4,0,0.7-0.3,0.7-0.7v-1.8h1.8c0.4,0,0.7-0.3,0.7-0.7
			c0-0.4-0.3-0.7-0.7-0.7h-1.8V7.5c0-0.4-0.3-0.7-0.7-0.7C9.3,6.8,9,7.1,9,7.5v1.8H7.3c-0.4,0-0.7,0.3-0.7,0.7
			C6.6,10.3,6.9,10.7,7.3,10.7z"/>
	</g>
</g>
</svg>
