<?xml version="1.0" standalone="no"?>
<!DOCTYPE svg PUBLIC "-//W3C//DTD SVG 20010904//EN"
 "http://www.w3.org/TR/2001/REC-SVG-20010904/DTD/svg10.dtd">
<svg version="1.0" xmlns="http://www.w3.org/2000/svg"
 width="645.000000pt" height="645.000000pt" viewBox="0 0 645.000000 645.000000"
 preserveAspectRatio="xMidYMid meet">
<metadata>
Created by potrace 1.11, written by Peter Selinger 2001-2013
</metadata>
<g transform="translate(0.000000,645.000000) scale(0.100000,-0.100000)"
fill="#000000" stroke="none">
<path d="M2256 6010 c-52 -26 -72 -45 -112 -105 -19 -27 -62 -91 -96 -141 -35
-49 -110 -159 -168 -242 -58 -84 -168 -244 -245 -355 l-140 -202 -155 -2 c-85
0 -245 -2 -355 -3 -202 -2 -293 -12 -390 -45 -282 -97 -491 -325 -567 -619
-21 -80 -21 -91 -22 -1566 -1 -817 2 -1507 5 -1535 23 -166 73 -290 169 -420
55 -74 174 -180 255 -228 38 -22 111 -55 161 -71 50 -17 98 -33 105 -36 8 -3
1130 -6 2494 -8 2704 -3 2552 -5 2701 54 282 112 496 374 543 665 7 42 11 569
11 1556 0 1641 3 1555 -62 1711 -92 225 -280 407 -506 489 -139 51 -186 54
-763 55 l-206 0 -101 151 c-56 84 -133 199 -172 257 -39 58 -75 112 -81 120
-332 495 -323 484 -379 512 l-52 28 -917 0 c-888 -1 -917 -1 -955 -20z m2041
-900 c178 -267 340 -500 360 -518 20 -18 53 -37 74 -42 21 -6 221 -12 455 -14
231 -2 442 -7 469 -11 28 -4 78 -21 112 -37 114 -53 191 -141 233 -268 l22
-65 1 -1460 c0 -1120 -3 -1470 -13 -1505 -39 -144 -147 -261 -290 -313 -55
-20 -75 -20 -2470 -22 -2613 -1 -2479 -4 -2583 53 -99 53 -200 183 -224 287
-4 17 -8 696 -8 1510 l0 1480 23 57 c52 130 158 230 286 270 56 18 95 20 492
21 l431 2 48 30 c34 22 65 56 113 125 35 52 88 129 117 170 28 41 152 221 275
400 123 179 228 328 233 331 6 4 350 6 765 5 l755 -1 324 -485z"/>
<path d="M3109 4446 c-2 -2 -29 -6 -59 -10 -103 -11 -182 -30 -305 -73 -373
-131 -677 -402 -850 -758 -110 -225 -148 -390 -149 -640 -1 -156 6 -260 18
-296 3 -8 7 -25 10 -39 40 -234 200 -537 387 -731 178 -183 427 -336 654 -399
76 -22 156 -40 201 -46 27 -3 58 -8 69 -10 28 -6 285 -6 315 0 14 3 46 7 71
10 181 21 432 117 599 229 343 229 572 568 656 972 2 11 7 40 10 65 3 25 7 56
10 70 6 35 6 256 -1 305 -2 22 -7 60 -10 85 -20 156 -105 388 -199 540 -179
291 -442 510 -754 631 -71 27 -230 70 -312 84 -40 7 -355 17 -361 11z m331
-442 c324 -61 608 -271 762 -564 40 -76 82 -193 97 -270 23 -121 26 -148 25
-235 -5 -402 -228 -764 -587 -950 -243 -126 -514 -153 -780 -79 -349 98 -631
371 -740 719 -37 117 -39 135 -43 301 -2 120 1 168 17 237 83 376 340 667 704
800 38 13 151 42 205 51 57 9 270 3 340 -10z"/>
<path d="M5172 4105 c-77 -24 -143 -81 -177 -150 -49 -105 -30 -239 48 -330
14 -17 52 -44 84 -60 50 -26 69 -30 138 -29 66 0 89 5 131 26 171 89 213 315
84 462 -73 83 -197 116 -308 81z m156 -171 c67 -43 80 -139 26 -195 -69 -72
-183 -46 -215 49 -36 110 91 208 189 146z"/>
<path d="M5205 3882 c-46 -45 -23 -120 40 -137 57 -16 113 49 93 106 -13 37
-30 50 -72 54 -27 3 -41 -3 -61 -23z"/>
</g>
</svg>
