<?xml version="1.0" standalone="no"?>
<!DOCTYPE svg PUBLIC "-//W3C//DTD SVG 1.1//EN" "http://www.w3.org/Graphics/SVG/1.1/DTD/svg11.dtd" >
<svg xmlns="http://www.w3.org/2000/svg">
<metadata>Generated by IcoMoon</metadata>
<defs>
<font id="icomoon" horiz-adv-x="1024">
<font-face units-per-em="1024" ascent="960" descent="-64" />
<missing-glyph horiz-adv-x="1024" />
<glyph unicode="&#x20;" horiz-adv-x="512" d="" />
<glyph unicode="&#xe900;" glyph-name="analytic" d="M968.533 853.333c-4.267 4.267-4.267 4.267-8.533 4.267l-204.8 17.067-4.267 29.867c0 8.533-8.533 12.8-17.067 12.8l-187.733-25.6c0 0 0 0-4.267 0l-256 25.6c-8.533 0-17.067-8.533-17.067-12.8l-4.267-46.933-200.533-25.6c-8.533 0-12.8-8.533-12.8-12.8l102.4-819.2c0-4.267 0-8.533 0-12.8 4.267-4.267 8.533-8.533 12.8-8.533h678.4c8.533 0 12.8 4.267 12.8 12.8v17.067l25.6-4.267c8.533 0 12.8 4.267 17.067 12.8l68.267 823.467c4.267 8.533 4.267 8.533 0 12.8zM153.6 217.6l-72.533 588.8 72.533 8.533v-597.333zM294.4 887.467l119.467-8.533-119.467-17.067v25.6zM725.333 887.467l8.533-55.467h-456.533l448 55.467zM874.667 38.4h-17.067v405.333c0 8.533-4.267 12.8-12.8 12.8s-12.8-4.267-12.8-12.8v-435.2h-648.533v793.6h648.533v-298.667c0-8.533 4.267-12.8 12.8-12.8s12.8 4.267 12.8 12.8v315.733c4.267 8.533-4.267 12.8-12.8 12.8h-85.333v17.067l183.467-17.067-68.267-793.6zM772.267 759.467h-72.533c-4.267 0-8.533-4.267-12.8-4.267l-29.867-51.2c-34.133 25.6-76.8 38.4-119.467 38.4-8.533 0-12.8-4.267-12.8-12.8v-192c0-8.533 4.267-12.8 12.8-12.8h192c8.533 0 12.8 4.267 12.8 12.8 0 59.733-25.6 110.933-64 149.333l29.867 42.667h68.267c8.533 0 12.8 4.267 12.8 12.8s-8.533 17.067-17.067 17.067zM712.533 550.4h-162.133v166.4c34.133-4.267 64-12.8 89.6-34.133l-12.8-17.067c-4.267-4.267-4.267-12.8 4.267-17.067 4.267-4.267 17.067-4.267 21.333 4.267l8.533 17.067c29.867-34.133 51.2-72.533 51.2-119.467zM772.267 302.933h-123.733l-21.333 34.133c34.133 38.4 59.733 85.333 59.733 140.8 0 8.533-4.267 12.8-12.8 12.8h-179.2v179.2c0 8.533-4.267 12.8-12.8 12.8-115.2 0-204.8-93.867-204.8-204.8s93.867-204.8 204.8-204.8c46.933 0 93.867 17.067 128 42.667l21.333-38.4c4.267-4.267 8.533-8.533 12.8-8.533h132.267c8.533 0 12.8 4.267 12.8 12.8-4.267 12.8-8.533 21.333-17.067 21.333zM580.267 413.867c-4.267 8.533-12.8 8.533-17.067 4.267-8.533-4.267-12.8-12.8-8.533-21.333l34.133-55.467c-29.867-25.6-68.267-38.4-110.933-38.4-98.133 0-179.2 81.067-179.2 179.2 0 93.867 72.533 170.667 162.133 179.2v-179.2c0-8.533 4.267-12.8 12.8-12.8h179.2c-4.267-38.4-21.333-76.8-42.667-102.4l-29.867 46.933zM358.4 226.133h-115.2c-8.533 0-12.8-4.267-12.8-12.8s4.267-12.8 12.8-12.8h119.467c8.533 0 12.8 4.267 12.8 12.8s-8.533 12.8-17.067 12.8zM537.6 226.133h-119.467c-8.533 0-12.8-4.267-12.8-12.8s4.267-12.8 12.8-12.8h119.467c8.533 0 12.8 4.267 12.8 12.8s-4.267 12.8-12.8 12.8zM435.2 153.6h-192c-8.533 0-12.8-4.267-12.8-12.8s4.267-12.8 12.8-12.8h192c8.533 0 12.8 4.267 12.8 12.8s-8.533 12.8-12.8 12.8zM537.6 153.6h-42.667c-8.533 0-12.8-4.267-12.8-12.8s4.267-12.8 12.8-12.8h42.667c8.533 0 12.8 4.267 12.8 12.8s-4.267 12.8-12.8 12.8zM302.933 81.067h-59.733c-8.533 0-12.8-4.267-12.8-12.8s4.267-12.8 12.8-12.8h59.733c8.533 0 12.8 4.267 12.8 12.8 0 4.267-8.533 12.8-12.8 12.8zM537.6 81.067h-179.2c-8.533 0-12.8-4.267-12.8-12.8s4.267-12.8 12.8-12.8h174.933c8.533 0 12.8 4.267 12.8 12.8 4.267 4.267 0 12.8-8.533 12.8z" />
<glyph unicode="&#xe901;" glyph-name="calendar" d="M870.4 844.8h-42.667v72.533h-72.533v-72.533h-486.4v72.533h-72.533v-72.533h-42.667c-59.733 0-110.933-51.2-110.933-110.933v-644.267c0-59.733 51.2-110.933 110.933-110.933h716.8c59.733 0 110.933 51.2 110.933 110.933v644.267c0 59.733-51.2 110.933-110.933 110.933zM908.8 89.6c0-21.333-17.067-38.4-38.4-38.4h-716.8c-21.333 0-38.4 17.067-38.4 38.4v482.133h793.6v-482.133zM908.8 644.267h-793.6v89.6c0 21.333 17.067 38.4 38.4 38.4h42.667v-72.533h72.533v72.533h482.133v-72.533h72.533v72.533h42.667c21.333 0 38.4-17.067 38.4-38.4v-89.6zM183.467 494.933h72.533v-72.533h-72.533v72.533zM328.533 494.933h72.533v-72.533h-72.533v72.533zM473.6 494.933h72.533v-72.533h-72.533v72.533zM622.933 494.933h72.533v-72.533h-72.533v72.533zM768 494.933h72.533v-72.533h-72.533v72.533zM183.467 349.867h72.533v-72.533h-72.533v72.533zM328.533 349.867h72.533v-72.533h-72.533v72.533zM473.6 349.867h72.533v-72.533h-72.533v72.533zM622.933 349.867h72.533v-72.533h-72.533v72.533zM183.467 200.533h72.533v-72.533h-72.533v72.533zM328.533 200.533h72.533v-72.533h-72.533v72.533zM473.6 200.533h72.533v-72.533h-72.533v72.533zM622.933 200.533h72.533v-72.533h-72.533v72.533zM768 349.867h72.533v-72.533h-72.533v72.533z" />
<glyph unicode="&#xe902;" glyph-name="check" d="M362.667 110.933l-307.2 307.2c-17.067 17.067-17.067 46.933 0 68.267l68.267 68.267c17.067 17.067 46.933 17.067 68.267 0l204.8-204.8 439.467 435.2c17.067 17.067 46.933 17.067 68.267 0l68.267-68.267c17.067-17.067 17.067-46.933 0-68.267l-546.133-537.6c-17.067-17.067-46.933-17.067-64 0v0z" />
<glyph unicode="&#xe903;" glyph-name="design" d="M951.467 917.333h-878.933c-25.6 0-46.933-21.333-46.933-46.933v-665.6c0-8.533 8.533-12.8 17.067-12.8h345.6l-25.6-119.467h-34.133c-8.533 0-17.067-8.533-17.067-17.067v-46.933h-25.6v-29.867h452.267v29.867h-29.867v46.933c0 8.533-8.533 17.067-17.067 17.067h-34.133l-21.333 119.467h345.6c8.533 0 17.067 8.533 17.067 17.067v661.333c0 25.6-21.333 46.933-46.933 46.933zM648.533 38.4h29.867v-29.867h-332.8v29.867h302.933zM392.533 68.267l25.6 123.733h187.733l25.6-119.467h-238.933zM964.267 221.867h-904.533v136.533h904.533v-136.533zM755.2 780.8h-119.467c-8.533 0-17.067-8.533-17.067-17.067v-136.533h29.867v123.733h89.6v-59.733h-59.733v-29.867h59.733v-76.8h-59.733v-29.867h59.733v-76.8h-59.733v-29.867h59.733v-59.733h-89.6v119.467h-29.867v-119.467h-59.733v76.8c0 59.733 76.8 76.8 76.8 76.8s4.267 0 4.267 0c8.533 4.267 8.533 12.8 4.267 21.333l-136.533 226.133c0 0-4.267 4.267-4.267 4.267-8.533 4.267-17.067 4.267-21.333-4.267l-136.533-226.133c0 0 0-4.267 0-4.267 0-8.533 4.267-17.067 12.8-17.067 4.267 0 76.8-12.8 76.8-76.8v-76.8h-59.733v119.467h-29.867v-119.467h-17.067v273.067h17.067v-29.867h29.867v42.667c0 0 0 4.267 0 4.267l-46.933 106.667c0 4.267-4.267 8.533-8.533 8.533-8.533 4.267-17.067 0-21.333-8.533l-42.667-102.4c0 0 0-4.267 0-4.267v-285.867h-123.733v418.133h755.2v-422.4h-119.467v379.733c0 4.267-4.267 12.8-12.8 12.8zM465.067 430.933v17.067h59.733v-17.067h-59.733zM529.067 401.067v-17.067h-59.733v17.067h59.733zM465.067 477.867c-8.533 46.933-46.933 72.533-81.067 85.333l98.133 162.133v-128h29.867v128l98.133-162.133c-34.133-12.8-72.533-38.4-81.067-85.333h-64zM294.4 691.2l21.333 51.2 21.333-51.2h-42.667zM298.667 661.333v-273.067h-12.8v273.067h12.8zM964.267 388.267h-46.933v439.467c0 8.533-8.533 17.067-17.067 17.067h-780.8c-8.533 0-17.067-8.533-17.067-17.067v-439.467h-42.667v482.133c0 8.533 8.533 17.067 17.067 17.067h878.933c8.533 0 17.067-8.533 17.067-17.067v-482.133zM512 341.333c-25.6 0-46.933-21.333-46.933-46.933s21.333-46.933 46.933-46.933 46.933 21.333 46.933 46.933c0 25.6-21.333 46.933-46.933 46.933zM512 281.6c-8.533 0-17.067 8.533-17.067 17.067s8.533 17.067 17.067 17.067 17.067-8.533 17.067-17.067c0-8.533-8.533-17.067-17.067-17.067z" />
<glyph unicode="&#xe904;" glyph-name="ecommerce" d="M938.667 887.467h-59.733v-29.867h59.733c8.533 0 12.8-8.533 12.8-12.8v-469.333h-42.667v426.667c0 8.533-8.533 12.8-12.8 12.8h-12.8v-439.467h-42.667v529.067c0 8.533-8.533 12.8-12.8 12.8h-622.933c-8.533 0-17.067-8.533-17.067-12.8v-529.067h-42.667v439.467h-12.8c-8.533 0-12.8-8.533-12.8-12.8v-426.667h-42.667v469.333c0 8.533 8.533 12.8 12.8 12.8h59.733v29.867h-64c-25.6 0-42.667-21.333-42.667-42.667v-644.267c0-8.533 8.533-12.8 12.8-12.8h332.8l-25.6-119.467h-25.6c-8.533 0-12.8-8.533-12.8-12.8v-42.667h-34.133v-34.133h439.467v29.867h-29.867v42.667c0 8.533-8.533 12.8-12.8 12.8h-29.867l-25.6 119.467h332.8c8.533 0 12.8 8.533 12.8 12.8v648.533c4.267 25.6-17.067 42.667-38.4 42.667zM733.867 887.467h72.533v-59.733h-72.533v59.733zM366.933 887.467h337.067v-59.733h-337.067v59.733zM217.6 887.467h119.467v-59.733h-119.467v59.733zM217.6 797.867h588.8v-426.667h-29.867v59.733c0 8.533-8.533 12.8-12.8 12.8h-499.2c-8.533 0-12.8-8.533-12.8-12.8v-59.733h-34.133v426.667zM746.667 418.133v-42.667h-469.333v42.667h469.333zM644.267 38.4h29.867v-29.867h-324.267v29.867h294.4zM396.8 68.267l21.333 119.467h179.2l21.333-119.467h-221.867zM951.467 213.333h-878.933v132.267h878.933v-132.267zM512 328.533c-25.6 0-42.667-21.333-42.667-42.667s21.333-42.667 42.667-42.667 42.667 21.333 42.667 42.667-17.067 42.667-42.667 42.667zM512 273.067c-8.533 0-12.8 8.533-12.8 12.8s8.533 12.8 12.8 12.8 12.8-8.533 12.8-12.8-4.267-12.8-12.8-12.8zM554.667 772.267h-290.133c-8.533 0-17.067-8.533-17.067-17.067v-264.533c0-8.533 8.533-12.8 12.8-12.8h294.4c8.533 0 12.8 8.533 12.8 12.8v264.533c4.267 8.533-4.267 17.067-12.8 17.067zM320 507.733h-42.667v42.667h42.667v-42.667zM392.533 507.733h-42.667v42.667h42.667v-42.667zM469.333 507.733h-42.667v42.667h42.667v-42.667zM541.867 507.733h-42.667v42.667h42.667v-42.667zM541.867 580.267h-264.533v162.133h264.533v-162.133zM759.467 772.267h-145.067c-8.533 0-12.8-8.533-12.8-12.8v-59.733c0-8.533 8.533-12.8 12.8-12.8h145.067c8.533 0 12.8 8.533 12.8 12.8v55.467c4.267 8.533-4.267 17.067-12.8 17.067zM746.667 712.533h-119.467v29.867h119.467v-29.867zM601.6 652.8h102.4v-29.867h-102.4v29.867zM746.667 652.8h29.867v-29.867h-29.867v29.867zM601.6 593.067h174.933v-29.867h-174.933v29.867zM601.6 537.6h119.467v-29.867h-119.467v29.867z" />
<glyph unicode="&#xe905;" glyph-name="facebook" d="M409.6-21.333v418.133h-140.8v170.667h140.8v128c0 140.8 85.333 221.867 213.333 221.867 59.733 0 115.2-4.267 128-8.533v-149.333h-89.6c-68.267 0-81.067-34.133-81.067-81.067v-115.2h157.867l-21.333-166.4h-136.533v-418.133z" />
<glyph unicode="&#xe906;" glyph-name="firefox" d="M981.333 512c-21.333-25.6-55.467-38.4-55.467-38.4 42.667 115.2-8.533 298.667-38.4 328.533 4.267-42.667 0-64-8.533-85.333-59.733 81.067-174.933 170.667-285.867 200.533 119.467-64 238.933-307.2 230.4-426.667 0 0-21.333 38.4-81.067 55.467 68.267-140.8-4.267-311.467-183.467-311.467-128 0-162.133 51.2-183.467 76.8v0c12.8-4.267 25.6-4.267 34.133-4.267 34.133 0 59.733 17.067 85.333 34.133 8.533 4.267 17.067 8.533 25.6 8.533 21.333 0 34.133-12.8 46.933-12.8s42.667 29.867 17.067 59.733c-12.8 12.8-25.6 29.867-59.733 29.867 0 0 0 0 0 0-8.533 0-12.8 0-21.333-4.267-25.6-8.533-38.4-25.6-68.267-25.6-17.067 0-106.667 8.533-106.667 85.333 0 25.6 29.867 46.933 29.867 46.933s4.267 0 4.267 0c21.333 0 55.467-29.867 55.467-29.867s8.533 51.2-12.8 68.267c4.267 12.8 64 42.667 68.267 46.933 8.533 4.267 17.067 12.8 21.333 21.333 4.267 4.267 8.533 17.067 8.533 29.867 0 8.533-8.533 12.8-68.267 12.8-4.267 0-8.533 0-12.8 0 0 0 0 0 0 0-21.333 0-42.667 21.333-46.933 34.133 8.533 29.867 34.133 72.533 64 89.6 0 0 0 0 0 0-12.8 0-85.333-4.267-128-51.2-21.333 4.267-34.133 8.533-51.2 8.533 0 0 0 0 0 0-21.333 0-42.667-4.267-55.467-8.533-12.8 4.267-55.467 51.2-55.467 89.6 0 0-46.933-42.667-46.933-157.867 0-4.267 0-4.267 0-8.533-12.8-12.8-59.733-93.867-59.733-251.733 0-217.6 145.067-443.733 456.533-443.733 315.733 0 456.533 217.6 473.6 264.533-34.133-25.6-89.6-25.6-89.6-25.6 29.867 38.4 98.133 140.8 98.133 294.4zM785.067 145.067v0h8.533c-34.133-25.6-72.533-46.933-115.2-64-55.467-21.333-115.2-29.867-179.2-29.867s-123.733 12.8-174.933 34.133c-46.933 21.333-85.333 46.933-115.2 85.333-29.867 34.133-55.467 72.533-68.267 119.467-17.067 42.667-21.333 89.6-21.333 136.533 0 145.067 42.667 209.067 46.933 209.067l12.8 21.333 17.067 17.067 34.133 8.533c4.267 0 17.067 4.267 34.133 4.267v0c12.8 0 25.6 0 38.4-4.267h8.533c8.533-21.333 25.6-42.667 46.933-55.467-12.8-8.533-17.067-17.067-21.333-25.6v0l-8.533-4.267c-17.067-8.533-72.533-51.2-72.533-115.2 0-128 59.733-320 298.667-320 102.4 0 192 46.933 238.933 128 8.533 12.8 21.333 42.667 21.333 42.667 4.267-119.467-98.133-183.467-98.133-183.467h68.267z" />
<glyph unicode="&#xe907;" glyph-name="growth" d="M119.467 780.8h204.8v-29.867h-204.8v29.867zM119.467 716.8h204.8v-29.867h-204.8v29.867zM119.467 657.067h140.8v-29.867h-140.8v29.867zM119.467 593.067h140.8v-29.867h-140.8v29.867zM42.667-34.133h938.667v-29.867h-938.667v29.867zM947.2 742.4l-64 123.733c0 8.533-8.533 8.533-17.067 8.533 0 0 0 0 0 0l-123.733-64c-8.533-4.267-12.8-12.8-8.533-21.333s12.8-12.8 21.333-8.533l89.6 46.933-25.6-72.533c-106.667-311.467-388.267-524.8-716.8-554.667l4.267-29.867c341.333 29.867 631.467 256 742.4 576l25.6 72.533 46.933-93.867c4.267-8.533 12.8-12.8 21.333-8.533 4.267 8.533 8.533 17.067 4.267 25.6zM230.4 123.733h-110.933c-8.533 0-17.067-8.533-17.067-17.067v-93.867c0-8.533 8.533-17.067 17.067-17.067h110.933c8.533 0 17.067 8.533 17.067 17.067v93.867c0 8.533-8.533 17.067-17.067 17.067zM213.333 29.867h-76.8v64h76.8v-64zM401.067 170.667h-106.667c-8.533 0-17.067-8.533-17.067-17.067v-140.8c0-8.533 8.533-17.067 17.067-17.067h110.933c8.533 0 17.067 8.533 17.067 17.067v140.8c-4.267 8.533-12.8 17.067-21.333 17.067zM388.267 29.867h-81.067v110.933h76.8v-110.933zM576 247.467h-110.933c-8.533 0-17.067-8.533-17.067-17.067v-217.6c0-8.533 8.533-17.067 17.067-17.067h110.933c8.533 0 17.067 8.533 17.067 17.067v221.867c-4.267 8.533-8.533 12.8-17.067 12.8zM558.933 29.867h-76.8v187.733h76.8v-187.733zM746.667 358.4h-110.933c-8.533 0-17.067-8.533-17.067-17.067v-328.533c0-8.533 8.533-17.067 17.067-17.067h110.933c8.533 0 17.067 8.533 17.067 17.067v328.533c0 8.533-8.533 17.067-17.067 17.067zM729.6 29.867h-76.8v298.667h76.8v-298.667zM917.333 576h-106.667c-8.533 0-17.067-8.533-17.067-17.067v-546.133c0-8.533 8.533-17.067 17.067-17.067h110.933c8.533 0 17.067 8.533 17.067 17.067v550.4c-4.267 8.533-12.8 12.8-21.333 12.8zM904.533 29.867h-76.8v516.267h76.8v-516.267z" />
<glyph unicode="&#xe908;" glyph-name="instagram" d="M708.267 917.333h-392.533c-149.333 0-273.067-123.733-273.067-273.067v-392.533c0-149.333 123.733-273.067 273.067-273.067h392.533c149.333 0 273.067 123.733 273.067 273.067v392.533c0 149.333-123.733 273.067-273.067 273.067zM908.8 251.733c0-110.933-89.6-200.533-200.533-200.533h-392.533c-110.933 0-200.533 89.6-200.533 200.533v392.533c0 110.933 89.6 200.533 200.533 200.533h392.533c110.933 0 200.533-89.6 200.533-200.533v-392.533zM512 699.733c-140.8 0-251.733-115.2-251.733-251.733s115.2-251.733 251.733-251.733 251.733 115.2 251.733 251.733-110.933 251.733-251.733 251.733zM512 268.8c-98.133 0-179.2 81.067-179.2 179.2s81.067 179.2 179.2 179.2 179.2-81.067 179.2-179.2-81.067-179.2-179.2-179.2zM806.4 704c0-21.208-17.192-38.4-38.4-38.4s-38.4 17.192-38.4 38.4c0 21.208 17.192 38.4 38.4 38.4s38.4-17.192 38.4-38.4z" />
<glyph unicode="&#xe909;" glyph-name="internet" d="M844.8 780.8c-89.6 89.6-209.067 136.533-332.8 136.533s-243.2-46.933-332.8-136.533c-89.6-89.6-136.533-209.067-136.533-332.8s46.933-243.2 136.533-332.8c89.6-89.6 209.067-136.533 332.8-136.533s243.2 46.933 332.8 136.533c89.6 89.6 136.533 204.8 136.533 332.8s-46.933 243.2-136.533 332.8zM345.6 806.4c-4.267-8.533-12.8-21.333-21.333-34.133-8.533-21.333-17.067-46.933-25.6-72.533h-89.6c38.4 46.933 85.333 85.333 136.533 106.667zM157.867 627.2h119.467c-8.533-42.667-17.067-93.867-17.067-140.8h-140.8c4.267 51.2 17.067 98.133 38.4 140.8zM157.867 268.8c-21.333 42.667-38.4 93.867-42.667 145.067h140.8c0-51.2 8.533-98.133 17.067-145.067h-115.2zM209.067 196.267h89.6c8.533-25.6 17.067-46.933 29.867-68.267 8.533-12.8 12.8-25.6 21.333-38.4-55.467 21.333-102.4 59.733-140.8 106.667zM473.6 59.733c-29.867 17.067-59.733 46.933-85.333 98.133-4.267 12.8-12.8 25.6-17.067 38.4h98.133v-136.533zM473.6 268.8h-119.467c-12.8 42.667-17.067 93.867-21.333 145.067h140.8v-145.067zM473.6 486.4h-140.8c4.267 46.933 8.533 98.133 21.333 140.8h123.733v-140.8zM473.6 699.733h-98.133c4.267 12.8 8.533 25.6 17.067 38.4 25.6 46.933 51.2 81.067 85.333 98.133l-4.267-136.533zM866.133 627.2c21.333-42.667 38.4-93.867 42.667-145.067h-140.8c0 51.2-8.533 98.133-17.067 145.067h115.2zM814.933 699.733h-89.6c-8.533 25.6-17.067 46.933-29.867 68.267-8.533 12.8-12.8 25.6-21.333 38.4 55.467-21.333 102.4-59.733 140.8-106.667zM550.4 836.267c29.867-17.067 59.733-46.933 85.333-98.133 4.267-12.8 12.8-25.6 17.067-38.4h-98.133v136.533zM550.4 627.2h123.733c12.8-42.667 17.067-93.867 21.333-145.067h-140.8v145.067zM631.467 157.867c-25.6-46.933-51.2-81.067-85.333-98.133v132.267h98.133c0-8.533-4.267-21.333-12.8-34.133zM550.4 268.8v145.067h140.8c-4.267-51.2-8.533-98.133-21.333-145.067h-119.467zM678.4 89.6c8.533 12.8 12.8 25.6 21.333 38.4 12.8 21.333 21.333 42.667 29.867 68.267h89.6c-42.667-46.933-89.6-85.333-140.8-106.667zM866.133 268.8h-119.467c8.533 46.933 17.067 93.867 17.067 145.067h140.8c-4.267-55.467-17.067-102.4-38.4-145.067z" />
<glyph unicode="&#xe90a;" glyph-name="leaf" d="M908.8 917.333v0 0c-89.6-102.4-196.267-174.933-439.467-174.933-98.133 0-187.733-29.867-256-85.333-72.533-59.733-110.933-145.067-110.933-238.933 0-64 12.8-110.933 42.667-145.067-21.333-25.6-42.667-55.467-59.733-85.333-29.867-55.467-42.667-115.2-42.667-174.933v-34.133h72.533v38.4c0 72.533 25.6 136.533 68.267 187.733 17.067-38.4 46.933-72.533 81.067-102.4 59.733-51.2 128-81.067 200.533-81.067 115.2 0 213.333 34.133 290.133 98.133 64 55.467 119.467 132.267 153.6 234.667 64 174.933 72.533 384 72.533 524.8v38.4h-72.533zM174.933 418.133c0 174.933 153.6 251.733 294.4 251.733 217.6 0 341.333 55.467 422.4 128-17.067-42.667-42.667-76.8-89.6-115.2-72.533-64-187.733-123.733-366.933-200.533-55.467-21.333-157.867-72.533-247.467-153.6-4.267 21.333-12.8 51.2-12.8 89.6zM840.533 379.733c-72.533-192-196.267-285.867-375.467-285.867-106.667 0-200.533 85.333-226.133 170.667 89.6 85.333 200.533 136.533 234.667 149.333 187.733 76.8 307.2 145.067 384 213.333 17.067 17.067 34.133 29.867 46.933 46.933-12.8-98.133-29.867-200.533-64-294.4z" />
<glyph unicode="&#xe90b;" glyph-name="mail" d="M964.267 567.467c8.533 4.267 17.067 0 17.067-8.533v-375.467c0-46.933-38.4-89.6-89.6-89.6h-759.467c-46.933 0-89.6 38.4-89.6 89.6v375.467c0 8.533 8.533 12.8 17.067 8.533 42.667-29.867 93.867-72.533 281.6-209.067 38.4-29.867 102.4-89.6 170.667-85.333 64 0 132.267 59.733 170.667 85.333 183.467 136.533 238.933 179.2 281.6 209.067zM512 328.533c42.667 0 102.4 55.467 136.533 76.8 243.2 174.933 260.267 192 320 234.667 8.533 12.8 12.8 25.6 12.8 38.4v34.133c0 46.933-38.4 89.6-89.6 89.6h-759.467c-51.2-4.267-89.6-42.667-89.6-89.6v-34.133c0-12.8 4.267-25.6 17.067-34.133 55.467-42.667 72.533-59.733 320-234.667 29.867-25.6 89.6-81.067 132.267-81.067v0z" />
<glyph unicode="&#xe90c;" glyph-name="minus" d="M913.067 550.4h-802.133c-38.4 0-68.267-29.867-68.267-68.267v-68.267c0-38.4 29.867-68.267 68.267-68.267h806.4c38.4 0 68.267 29.867 68.267 68.267v68.267c-4.267 38.4-34.133 68.267-72.533 68.267z" />
<glyph unicode="&#xe90d;" glyph-name="phone" d="M947.2 870.4l-192 42.667c-21.333 4.267-42.667-4.267-51.2-25.6l-89.6-204.8c-8.533-17.067-4.267-38.4 12.8-51.2l110.933-89.6c-64-140.8-179.2-256-324.267-324.267l-89.6 110.933c-12.8 17.067-34.133 21.333-51.2 12.8l-204.8-89.6c-21.333-8.533-29.867-29.867-25.6-51.2l42.667-192c4.267-21.333 21.333-34.133 42.667-34.133 473.6 4.267 853.333 384 853.333 853.333 0 21.333-12.8 38.4-34.133 42.667z" />
<glyph unicode="&#xe90e;" glyph-name="photo-camera" d="M682.667 593.067h153.6v-72.533h-153.6v72.533zM870.4 738.133h-226.133c-4.267 0-8.533 4.267-8.533 4.267l-38.4 81.067c0 0 0 0 0 0-12.8 29.867-42.667 46.933-76.8 46.933h-196.267c-34.133 0-59.733-17.067-76.8-46.933 0 0 0 0 0 0l-38.4-76.8c0-4.267-4.267-4.267-8.533-4.267h-46.933c-59.733-4.267-110.933-51.2-110.933-110.933v-494.933c0-59.733 51.2-110.933 110.933-110.933h716.8c59.733 0 110.933 51.2 110.933 110.933v494.933c0 59.733-51.2 106.667-110.933 106.667zM908.8 136.533c0-21.333-17.067-38.4-38.4-38.4h-716.8c-21.333 0-38.4 17.067-38.4 38.4v494.933c0 21.333 17.067 38.4 38.4 38.4h46.933c34.133 0 59.733 17.067 76.8 46.933 0 0 0 0 0 0l38.4 76.8c0 4.267 4.267 4.267 8.533 4.267h200.533c4.267 0 8.533-4.267 8.533-4.267l38.4-76.8c0 0 0 0 0 0 12.8-29.867 42.667-46.933 76.8-46.933h226.133c21.333 0 38.4-17.067 38.4-38.4v-494.933zM418.133 631.467c-128 0-230.4-102.4-230.4-230.4s102.4-230.4 230.4-230.4 230.4 102.4 230.4 230.4-102.4 230.4-230.4 230.4zM418.133 243.2c-85.333 0-157.867 68.267-157.867 157.867s68.267 157.867 157.867 157.867 157.867-68.267 157.867-157.867-72.533-157.867-157.867-157.867z" />
<glyph unicode="&#xe90f;" glyph-name="pin" d="M477.867-4.267c-264.533 388.267-315.733 426.667-315.733 567.467 0 196.267 153.6 354.133 349.867 354.133s349.867-157.867 349.867-349.867c0-140.8-51.2-183.467-315.733-567.467-17.067-25.6-51.2-25.6-68.267-4.267v0zM512 418.133c81.067 0 145.067 64 145.067 145.067s-64 149.333-145.067 149.333-145.067-68.267-145.067-145.067 64-149.333 145.067-149.333z" />
<glyph unicode="&#xe910;" glyph-name="play-button" d="M699.733 465.067l-260.267 174.933c-8.533 4.267-29.867 4.267-29.867-17.067v-354.133c0-21.333 25.6-21.333 29.867-17.067l260.267 174.933c8.533 8.533 17.067 25.6 0 38.4v0zM448 307.2v281.6l204.8-140.8-204.8-140.8zM512 917.333c-260.267 0-469.333-209.067-469.333-469.333s209.067-469.333 469.333-469.333 469.333 209.067 469.333 469.333-209.067 469.333-469.333 469.333zM512 17.067c-234.667 0-430.933 196.267-430.933 430.933s196.267 430.933 430.933 430.933 430.933-196.267 430.933-430.933-196.267-430.933-430.933-430.933z" />
<glyph unicode="&#xe911;" glyph-name="plus" d="M913.067 550.4h-302.933v298.667c0 38.4-29.867 68.267-68.267 68.267h-68.267c-38.4 0-68.267-29.867-68.267-68.267v-302.933h-294.4c-38.4 4.267-68.267-25.6-68.267-64v-68.267c0-38.4 29.867-68.267 68.267-68.267h302.933v-302.933c0-38.4 29.867-68.267 68.267-68.267h68.267c38.4 0 68.267 29.867 68.267 68.267v302.933h302.933c38.4 0 68.267 29.867 68.267 68.267v68.267c-8.533 38.4-38.4 68.267-76.8 68.267z" />
<glyph unicode="&#xe912;" glyph-name="tumblr" d="M785.067 38.4c-25.6-25.6-89.6-59.733-179.2-59.733-221.867 0-268.8 162.133-268.8 256v264.533h-85.333c-8.533 0-17.067 8.533-17.067 17.067v128c0 12.8 8.533 25.6 21.333 29.867 115.2 38.4 149.333 140.8 153.6 213.333 0 21.333 12.8 29.867 29.867 29.867h128c8.533 0 17.067-8.533 17.067-17.067v-209.067h153.6c8.533 0 17.067-8.533 17.067-17.067v-149.333c0-8.533-8.533-17.067-17.067-17.067h-153.6v-243.2c0-64 42.667-98.133 123.733-64 8.533 4.267 17.067 4.267 21.333 4.267 8.533 0 8.533-4.267 12.8-12.8l38.4-119.467c8.533-17.067 12.8-29.867 4.267-34.133v0z" />
<glyph unicode="&#xe913;" glyph-name="twitter" d="M883.2 640c0-8.533 0-17.067 0-25.6 0-256-192-546.133-546.133-546.133-110.933 0-209.067 29.867-294.4 85.333 17.067-4.267 29.867-4.267 46.933-4.267 89.6 0 170.667 29.867 238.933 81.067-85.333 0-153.6 55.467-179.2 132.267 8.533 0 21.333 0 34.133 0 17.067 0 34.133 4.267 51.2 8.533-89.6 17.067-153.6 93.867-153.6 187.733v4.267c25.6-12.8 55.467-21.333 85.333-25.6-51.2 34.133-85.333 93.867-85.333 162.133 0 34.133 8.533 68.267 25.6 98.133 93.867-115.2 238.933-192 396.8-200.533-4.267 12.8-4.267 29.867-4.267 42.667 0 106.667 85.333 192 192 192 55.467 0 106.667-21.333 140.8-59.733 42.667 8.533 85.333 25.6 123.733 46.933-12.8-42.667-42.667-81.067-85.333-106.667 38.4 4.267 76.8 12.8 110.933 29.867-25.6-42.667-59.733-76.8-98.133-102.4v0z" />
<glyph unicode="&#xe914;" glyph-name="caret-down-solid" d="M102.4 742.4h810.667c55.467 0 85.333-68.267 42.667-106.667l-401.067-405.333c-25.6-25.6-64-25.6-89.6 0l-405.333 405.333c-38.4 38.4-12.8 106.667 42.667 106.667z" />
<glyph unicode="&#xe915;" glyph-name="caret-up-solid" d="M917.333 153.6h-810.667c-55.467 0-85.333 68.267-42.667 106.667l405.333 405.333c25.6 25.6 64 25.6 89.6 0l405.333-405.333c38.4-38.4 8.533-106.667-46.933-106.667v0z" />
<glyph unicode="&#xe916;" glyph-name="arrow-left" d="M268.8 422.4c-12.8 12.8-12.8 34.133 0 46.933l439.467 439.467c12.8 12.8 34.133 12.8 46.933 0s12.8-34.133 0-46.933l-413.867-413.867 413.867-413.867c12.8-12.8 12.8-34.133 0-46.933-8.533-8.533-12.8-8.533-21.333-8.533s-17.067 4.267-25.6 8.533l-439.467 435.2z" />
<glyph unicode="&#xe917;" glyph-name="arrow-right" d="M315.733-12.8c-4.267-4.267-12.8-8.533-21.333-8.533s-17.067 4.267-25.6 8.533c-12.8 12.8-12.8 34.133 0 46.933l413.867 413.867-413.867 413.867c-12.8 12.8-12.8 34.133 0 46.933s34.133 12.8 46.933 0l435.2-435.2c12.8-12.8 12.8-34.133 0-46.933l-435.2-439.467z" />
<glyph unicode="&#xe918;" glyph-name="link-solid" d="M640 576c110.933-110.933 106.667-285.867 0-392.533 0 0 0 0 0 0l-123.733-123.733c-106.667-106.667-285.867-106.667-392.533 0s-106.667 285.867 0 392.533l68.267 68.267c17.067 17.067 51.2 4.267 51.2-21.333 0-34.133 8.533-64 17.067-98.133 4.267-12.8 0-21.333-8.533-29.867l-25.6-25.6c-51.2-51.2-51.2-136.533 0-187.733s136.533-51.2 187.733 0l123.733 123.733c51.2 51.2 51.2 136.533 0 187.733-8.533 8.533-12.8 12.8-17.067 17.067-8.533 4.267-12.8 12.8-12.8 21.333 0 21.333 4.267 38.4 21.333 55.467l38.4 38.4c8.533 8.533 25.6 12.8 38.4 4.267 12.8-4.267 25.6-17.067 34.133-29.867v0zM900.267 836.267c-106.667 106.667-285.867 106.667-392.533 0l-123.733-123.733c0 0 0 0 0 0-110.933-106.667-110.933-285.867 0-392.533 12.8-12.8 25.6-21.333 38.4-29.867s25.6-8.533 38.4 4.267l38.4 38.4c17.067 17.067 21.333 34.133 21.333 55.467 0 8.533-4.267 17.067-12.8 21.333-4.267 4.267-12.8 8.533-17.067 17.067-51.2 51.2-51.2 136.533 0 187.733l123.733 123.733c51.2 51.2 136.533 51.2 187.733 0s51.2-136.533 0-187.733l-25.6-25.6c-8.533-8.533-8.533-21.333-8.533-29.867 12.8-29.867 17.067-64 17.067-98.133 0-25.6 29.867-38.4 51.2-21.333l68.267 68.267c102.4 106.667 102.4 281.6-4.267 392.533v0z" />
<glyph unicode="&#xe919;" glyph-name="eye-solid" d="M968.533 486.4c-89.6 157.867-260.267 260.267-456.533 260.267s-366.933-102.4-456.533-260.267c-12.8-25.6-12.8-55.467 0-81.067 89.6-153.6 260.267-256 456.533-256s366.933 102.4 456.533 260.267c17.067 21.333 17.067 55.467 0 76.8v0zM512 226.133c-123.733 0-221.867 98.133-221.867 221.867s98.133 221.867 221.867 221.867c123.733 0 221.867-98.133 221.867-221.867s-98.133-221.867-221.867-221.867zM682.667 448c0-93.867-76.8-170.667-170.667-170.667s-170.667 76.8-170.667 170.667c0 29.867 8.533 55.467 21.333 81.067v0c0-38.4 29.867-68.267 68.267-68.267s68.267 29.867 68.267 68.267c0 38.4-29.867 68.267-68.267 68.267v0c25.6 12.8 51.2 21.333 81.067 21.333 93.867 0 170.667-76.8 170.667-170.667z" />
<glyph unicode="&#xe91a;" glyph-name="tick" d="M750.933 652.8l-55.467 55.467-251.733-251.733 55.467-55.467 251.733 251.733zM921.6 708.267l-422.4-426.667-170.667 170.667-55.467-55.467 226.133-226.133 482.133 482.133-59.733 55.467zM42.667 392.533l226.133-226.133 55.467 55.467-226.133 226.133-55.467-55.467z" />
<glyph unicode="&#xe91b;" glyph-name="close, remove, times" horiz-adv-x="805" d="M741.714 195.428c0-14.286-5.714-28.571-16-38.857l-77.714-77.714c-10.286-10.286-24.571-16-38.857-16s-28.571 5.714-38.857 16l-168 168-168-168c-10.286-10.286-24.571-16-38.857-16s-28.571 5.714-38.857 16l-77.714 77.714c-10.286 10.286-16 24.571-16 38.857s5.714 28.571 16 38.857l168 168-168 168c-10.286 10.286-16 24.571-16 38.857s5.714 28.571 16 38.857l77.714 77.714c10.286 10.286 24.571 16 38.857 16s28.571-5.714 38.857-16l168-168 168 168c10.286 10.286 24.571 16 38.857 16s28.571-5.714 38.857-16l77.714-77.714c10.286-10.286 16-24.571 16-38.857s-5.714-28.571-16-38.857l-168-168 168-168c10.286-10.286 16-24.571 16-38.857z" />
</font>
</defs>
</svg>
